<svg id="Layer_1" enable-background="new 0 0 512 512" height="512" viewBox="0 0 512 512" width="512" xmlns="http://www.w3.org/2000/svg"><g><g><g><path d="m472 376h-432v-208c0-17.673 14.327-32 32-32h368c17.673 0 32 14.327 32 32z" fill="#463c4b"/></g><g><path d="m440 376h-400v-208c0-17.673 14.327-32 32-32h336c17.673 0 32 14.327 32 32z" fill="#555a6e"/></g><g><path d="m72 416h368c17.673 0 32-14.327 32-32v-8h-432v8c0 17.673 14.327 32 32 32z" fill="#a5c3dc"/></g><g><path d="m408 416h-336c-17.673 0-32-14.327-32-32v-8h400v8c0 17.673-14.327 32-32 32z" fill="#d7e6f0"/></g><g><path d="m208 416h72v32h-72z" fill="#a5c3dc"/></g><g><path d="m208 432h48v16h-48z" fill="#d7e6f0"/></g><g><path d="m320 472h-160v-8c0-8.837 7.163-16 16-16h128c8.837 0 16 7.163 16 16z" fill="#d7e6f0"/></g><g><path d="m320 472h-48v-8c0-8.837 7.163-16 16-16h16c8.837 0 16 7.163 16 16z" fill="#a5c3dc"/></g></g><g><path d="m376 328h-272c-8.837 0-16-7.163-16-16v-256c0-8.837 7.163-16 16-16h272c8.837 0 16 7.163 16 16v256c0 8.837-7.163 16-16 16z" fill="#d7e6f0"/></g><path d="m272 64c-15.116 0-27.808 10.538-31.139 24.651-18.66 3.377-32.861 19.731-32.861 39.349v24c0 13.233-10.766 24-24 24v16c22.056 0 40-17.944 40-40v-24c0-10.903 7.311-20.125 17.287-23.038 3.886 13.295 16.179 23.038 30.713 23.038 17.645 0 32-14.355 32-32s-14.355-32-32-32zm0 48c-8.822 0-16-7.178-16-16s7.178-16 16-16 16 7.178 16 16-7.178 16-16 16z" fill="#00d2d2"/><path d="m320 240c-14.534 0-26.827 9.743-30.713 23.037-9.976-2.912-17.287-12.134-17.287-23.037v-24c0-22.056-17.944-40-40-40v16c13.234 0 24 10.767 24 24v24c0 19.618 14.201 35.972 32.861 39.35 3.331 14.112 16.023 24.65 31.139 24.65 17.645 0 32-14.355 32-32s-14.355-32-32-32zm0 48c-8.822 0-16-7.178-16-16s7.178-16 16-16 16 7.178 16 16-7.178 16-16 16z" fill="#00d2d2"/><path d="m360 168c-5.919 0-11.074 3.223-13.842 8h-186.158v16h186.158c2.768 4.777 7.923 8 13.842 8 8.837 0 16-7.163 16-16s-7.163-16-16-16z" fill="#555a6e"/><g><path d="m136 216c-17.645 0-32-14.355-32-32s14.355-32 32-32 32 14.355 32 32-14.355 32-32 32zm0-48c-8.822 0-16 7.178-16 16s7.178 16 16 16 16-7.178 16-16-7.178-16-16-16z" fill="#ff6e91"/></g></g></svg>